<?xml version="1.0" standalone="no"?>
<!DOCTYPE svg PUBLIC "-//W3C//DTD SVG 20010904//EN"
 "http://www.w3.org/TR/2001/REC-SVG-20010904/DTD/svg10.dtd">
<svg version="1.0" xmlns="http://www.w3.org/2000/svg"
 width="1000.000000pt" height="1000.000000pt" viewBox="0 0 1000.000000 1000.000000"
 preserveAspectRatio="xMidYMid meet">
<metadata>
Created by potrace 1.11, written by Peter Selinger 2001-2013
</metadata>
<g transform="translate(0.000000,1000.000000) scale(0.100000,-0.100000)"
fill="#000000" stroke="none">
<path d="M0 5000 l0 -5000 5000 0 5000 0 0 5000 0 5000 -5000 0 -5000 0 0
-5000z m3501 2935 c21 -66 337 -1083 704 -2260 367 -1177 777 -2492 911 -2922
134 -431 244 -787 244 -793 0 -7 -243 -9 -732 -8 l-732 3 -148 490 c-81 270
-157 520 -168 558 l-21 67 -875 -2 -876 -3 -149 -505 c-82 -278 -156 -529
-164 -557 l-16 -53 -705 0 -706 0 4 22 c9 39 1890 6052 1900 6071 8 16 52 17
750 15 l741 -3 38 -120z m4175 114 c541 -35 957 -182 1319 -464 111 -86 296
-281 383 -404 286 -401 455 -886 527 -1510 37 -320 39 -822 4 -1164 -83 -830
-337 -1471 -758 -1910 -374 -389 -859 -599 -1473 -637 -84 -5 -604 -10 -1155
-10 l-1003 0 0 3055 0 3055 998 0 c593 0 1064 -4 1158 -11z"/>
<path d="M2652 5913 c-17 -60 -123 -418 -236 -798 l-204 -690 233 -3 c129 -1
341 -1 473 0 l238 3 -231 792 c-127 435 -233 794 -236 798 -3 3 -20 -43 -37
-102z"/>
<path d="M6942 5004 l3 -1709 315 1 c305 1 318 2 415 28 273 71 462 230 595
501 90 183 128 313 172 590 18 113 21 189 25 568 6 479 -2 623 -42 823 -96
478 -336 768 -721 871 -95 25 -111 26 -432 31 l-332 4 2 -1708z"/>
</g>
</svg>
